# xmcd
#
# Track frame offsets:
#	150
#	11415
#	26630
#	42597
#	54992
#	66157
#	78247
#	88875
#	106132
#	119685
#	136982
#	150235
#	163585
#	176947
#	187945
#	202050
#	215815
#	232440
#
# Disc length: 3317 seconds
#
# Revision: 1
# Processed by: cddbd v1.5.2PL0 Copyright (c) Steve Scherf et al.
# Submitted via: audiograbber 1.83.01
#
DISCID=020cf312
DTITLE=Various Artist - BIG STUFF 
DYEAR=1900
DGENRE=
TTITLE0=THE GRASS ROOTS - TWO DIVIDED BY LOVE
TTITLE1=THE RUBETTES - SUGAR BABY LOVE
TTITLE2=REDBONE - THE WITCH QUEEN OF NEW ORLEANS
TTITLE3=MUNGO JERRY - ALRIGHT, ALRIGHT, ALRIGHT
TTITLE4=DONNA FARGO - SUPERMAN
TTITLE5=BOBBY WOMACK - LOOKIN' FOR A LOVE
TTITLE6=THE PEPPERS - PEPPER BOX
TTITLE7=BLUES IMAGE - RIDE CAPTAIN RIDE
TTITLE8=CHRISTIE - SAN BERNADINO
TTITLE9=THE MARMALADE - RADANCER
TTITLE10=THE RUBETTES - JUKE BOX JIVE
TTITLE11=JOE SIMON - GET DOWN, GET DOWN
TTITLE12=VANITY FARE - HITCHIN' A RIDE
TTITLE13=JEAN KNIGHT - MR. BIG STUFF
TTITLE14=MUNGO JERRY - LADY ROSE
TTITLE15=MARK LINDSAY - SILVER BIRD
TTITLE16=LEROY GOMEZ (FORMERLY SANTA ESMERALDA) - DON'T LET ME BE MISSUNDERSTOO
TTITLE16=D
TTITLE17=ALAN O'DAY - UNDERCOVER ANGEL
EXTD=
EXTT0=
EXTT1=
EXTT2=
EXTT3=
EXTT4=
EXTT5=
EXTT6=
EXTT7=
EXTT8=
EXTT9=
EXTT10=
EXTT11=
EXTT12=
EXTT13=
EXTT14=
EXTT15=
EXTT16=
EXTT17=
PLAYORDER=
